<?xml version="1.0" encoding="UTF-8"?>
<!-- Generator: visioncortex VTracer 0.6.12 -->
<svg version="1.1" xmlns="http://www.w3.org/2000/svg" width="512" height="512">
<path d="M0 0 C168.96 0 337.92 0 512 0 C512 168.96 512 337.92 512 512 C343.04 512 174.08 512 0 512 C0 343.04 0 174.08 0 0 Z " fill="#000000" transform="translate(0,0)"/>
<path d="M0 0 C0.71672 0.20109 1.43344 0.40219 2.17188 0.60938 C4 2 4 2 4.82812 5.30078 C4.98754 6.63591 5.12746 7.97348 5.25 9.3125 C5.32734 9.97701 5.40469 10.64152 5.48438 11.32617 C5.87974 14.89506 6.08331 18.41077 6 22 C7.98 22.33 9.96 22.66 12 23 C12 23.66 12 24.32 12 25 C13.57926 25.3918 15.16369 25.76281 16.75 26.125 C17.63172 26.33383 18.51344 26.54266 19.42188 26.75781 C22.36763 27.03453 23.54597 26.58029 26 25 C28.38506 22.96828 28.97677 22.06968 30 19 C30.66 18.67 31.32 18.34 32 18 C32.33 17.01 32.66 16.02 33 15 C33.66 14.67 34.32 14.34 35 14 C35.66 13.34 36.32 12.68 37 12 C44.02772 12 48.53719 14.03387 54.51953 17.625 C56.74036 18.85607 58.523 19.53809 61 20 C62.69042 25.13506 61.23642 29.71789 60.0625 34.8125 C59.86721 35.69615 59.67191 36.5798 59.4707 37.49023 C58.98933 39.6623 58.49886 41.83189 58 44 C58.62906 44.30035 59.25813 44.6007 59.90625 44.91016 C62.08517 46.04433 63.3105 47.24011 65 49 C67.38139 51.21716 68.69508 51.9481 71.9375 52.5 C76.00579 51.83579 77.2808 50.00543 80 47 C82 45.875 82 45.875 84 45 C84.40219 44.72156 84.40219 44.72156 86.4375 43.3125 C89 42 89 42 91.4375 42 C94.96174 43.37531 97.1432 45.51582 100 48 C100.99 48.33 101.98 48.66 103 49 C102.67 49.99 102.34 50.98 102 52 C103.98 52.66 105.96 53.32 108 54 C108.6875 56.25 108.6875 56.25 109 59 C107.6875 60.9375 107.6875 60.9375 106 63 C105.28293 64.98249 104.6171 66.98415 104 69 C103.62875 69.84562 103.2575 70.69125 102.875 71.5625 C101.87676 74.3433 101.69163 76.05964 102 79 C104.83737 83.56927 108.23712 87.28807 113.25 89.3125 C117.90412 88.92466 121.80301 87.52193 126.13281 85.8125 C129.48466 84.86266 130.83226 84.48986 134 86 C135.96237 88.67943 137.37176 91.57793 138.8125 94.5625 C139.2192 95.36881 139.6259 96.17512 140.04492 97.00586 C141.04614 98.99652 142.0301 100.99394 143 103 C143.66 103 144.32 103 145 103 C144.7739 106.95673 144.06854 107.93729 141.0625 110.6875 C140.55719 111.06906 140.55719 111.06906 138 113 C137.34 113.66 136.68 114.32 136 115 C135.44313 115.55687 134.88625 116.11375 134.3125 116.6875 C132.37119 120.10789 133.09317 122.24313 134 126 C134.96888 128.01526 135.96413 130.01834 137 132 C137 132.99 137 133.98 137 135 C142.94 135.33 148.88 135.66 155 136 C160.56744 158.44937 160.56744 158.44937 160 164 C158.59375 165.6875 158.59375 165.6875 157 167 C156.76281 167.26812 156.76281 167.26812 155.5625 168.625 C153.73549 170.23277 152.34512 170.48956 150 171 C150.11398 173.43847 150.24071 175.87513 150.375 178.3125 C150.39047 178.65765 150.39047 178.65765 150.46875 180.4043 C150.68125 184.06991 150.91934 185.87901 153 189 C155.38281 189.94922 155.38281 189.94922 158.125 190.6875 C158.58004 190.81318 158.58004 190.81318 160.88281 191.44922 C161.58148 191.63098 162.28016 191.81273 163 192 C163.11704 201.40229 162.88495 210.62896 162 220 C161.5282 220.15533 161.5282 220.15533 159.14062 220.94141 C152.56043 223.15936 152.56043 223.15936 150 227 C149.73438 230.28516 149.73438 230.28516 149.75 234.0625 C149.74484 235.3116 149.73969 236.5607 149.73438 237.84766 C150 241 150 241 152 243 C152.495 243.51562 152.99 244.03125 153.5 244.5625 C155 246 155 246 157 247 C156.78344 247.97582 156.56687 248.95164 156.34375 249.95703 C156.06531 251.22934 155.78688 252.50164 155.5 253.8125 C155.36078 254.44479 155.36078 254.44479 154.65625 257.64453 C154 261 154 261 154 264 C153.18938 269.19438 152.16852 272.52623 148 276 C148 276.33 148 276.66 148 277 C147.30133 277.03738 146.60266 277.07477 145.88281 277.11328 C144.97273 277.17902 144.06266 277.24477 143.125 277.3125 C142.22008 277.37051 141.31516 277.42852 140.38281 277.48828 C138 278 138 278 136 281 C135 283 135 283 134.5625 284.9375 C134 287 134 287 132 290 C131.375 292.1875 131.375 292.1875 131 294 C131.39188 294.12375 131.39188 294.12375 133.375 294.75 C136 296 136 296 137.4375 297.6875 C138.29944 301.23102 137.31866 303.67195 136 307 C135.01 307.33 134.02 307.66 133 308 C132.85562 308.80437 132.71125 309.60875 132.5625 310.4375 C132 313 132 313 131 314 C129.98377 315.9918 128.98287 317.99153 128 320 C127.34 320 126.68 320 126 320 C125.67 320.99 125.34 321.98 125 323 C120.62066 325.95605 117.23885 326.25845 112.14844 325.91016 C109.64747 326.01474 108.14479 326.75292 106 328 C106 328.99 106 329.98 106 331 C105.15438 331.76313 104.30875 332.52625 103.4375 333.3125 C101 336 101 336 101.125 339.0625 C101.26937 339.54719 101.26937 339.54719 102 342 C102.8971 345.05016 103.38473 347.03272 102 350 C100.33927 350.68132 98.67223 351.34742 97 352 C96.32211 353.32766 95.65695 354.66185 95 356 C93.29439 357.83434 91.4879 359.51128 89.65625 361.21875 C87.95553 363.04783 87.10217 364.78153 86 367 C82.55957 368.51784 80.30848 367.89932 76.9375 366.625 C76.28652 366.34914 75.63555 366.07328 74.96484 365.78906 C71.41667 364.36415 69.72336 363.75888 66 365 C65.01 365.66 64.02 366.32 63 367 C62.34 367.33 61.68 367.66 61 368 C58.80944 370.19056 58.4551 371.01474 58 374 C58.2021 375.48647 58.45433 376.96678 58.75 378.4375 C59.0625 380.82031 59.0625 380.82031 59 383 C56.75 385.8125 56.75 385.8125 54 388 C52.97186 389.31176 51.95916 390.63699 51 392 C50.01 391.67 49.02 391.34 48 391 C45.74262 392.09378 43.64632 393.21982 41.5 394.5 C39.35368 395.78018 37.25738 396.90622 35 398 C32 397 32 397 30 395 C29.13375 394.175 28.2675 393.35 27.375 392.5 C25 390 25 390 25 388 C22.38491 386.3972 20.68191 385.84378 17.66406 386.53516 C15.4144 387.29805 13.20142 388.10792 11 389 C11 389.66 11 390.32 11 391 C9.68 391.33 8.36 391.66 7 392 C6.01 397.61 5.02 403.22 4 409 C-2.62625 411.79983 -8.90086 413.54599 -16 414.5 C-16.74177 414.61328 -17.48355 414.72655 -18.2478 414.84326 C-20.375 415.09375 -20.375 415.09375 -24 415 C-25.85938 413.33594 -25.85938 413.33594 -27 411 C-27.39703 410.21883 -27.79406 409.43766 -28.20312 408.63281 C-31.6771 400.31082 -31.6771 400.31082 -30 395 C-30.81984 395.0348 -31.63969 395.06961 -32.48438 395.10547 C-33.56203 395.13254 -34.63969 395.15961 -35.75 395.1875 C-36.81734 395.2223 -37.88469 395.25711 -38.98438 395.29297 C-42.32053 394.96886 -43.54218 394.18792 -46 392 C-46.33 392 -46.66 392 -47 392 C-47.33 386.06 -47.66 380.12 -48 374 C-50.99637 377.99516 -51.42734 379.18636 -52 383.875 C-52.82037 389.48087 -53.89174 393.89174 -58 398 C-58.30937 398.66 -58.61875 399.32 -58.9375 400 C-60.37392 402.70385 -62.36256 403.69094 -65.0625 405 C-67 406 -67 406 -69 408 C-73.26535 412.26535 -77.06821 413.36445 -83 414 C-83.3532 414.07928 -83.3532 414.07928 -85.14062 414.48047 C-89.16286 415.21129 -93.17265 415.44822 -97.25 415.6875 C-97.65412 415.71747 -97.65412 415.71747 -99.69922 415.86914 C-105.45203 416.20511 -110.44947 415.53098 -116 414 C-116 413.34 -116 412.68 -116 412 C-117.98 411.34 -117.98 411.34 -128 408 C-128 407.34 -128 406.68 -128 406 C-128.35063 405.88656 -128.35063 405.88656 -130.125 405.3125 C-133.75678 403.65451 -136.07409 401.72642 -139 399 C-139.165 398.505 -139.165 398.505 -140 396 C-142.32672 394.9847 -144.66034 393.98512 -147 393 C-149.29014 389.5648 -149.17843 388.01467 -149 384 C-149.78375 383.73188 -150.5675 383.46375 -151.375 383.1875 C-154 382 -154 382 -156 379 C-156.33 378.67 -156.66 378.34 -157 378 C-157.82802 376.73922 -158.63785 375.46646 -159.4375 374.1875 C-159.65342 373.84396 -159.65342 373.84396 -160.74609 372.10547 C-164 366.64174 -164 366.64174 -164 363 C-164.66 362.67 -165.32 362.34 -166 362 C-166.22688 361.7525 -166.22688 361.7525 -167.375 360.5 C-169 359 -169 359 -170.77734 358.65625 C-175.94291 357.13109 -180.00132 352.4605 -184 349 C-184.88559 348.3052 -185.77117 347.61039 -186.68359 346.89453 C-190.49412 343.64491 -192.69391 341.45959 -193.74219 336.46094 C-193.98153 332.9579 -194 329.50908 -194 326 C-194.33984 323.63672 -194.33984 323.63672 -195 322 C-196.99508 321.31875 -198.99639 320.65573 -201 320 C-206.84512 316.57513 -211.30702 312.28747 -214 306 C-214.81551 301.88658 -215.14122 297.94239 -215.21094 293.75391 C-215.2393 292.58666 -215.26766 291.41941 -215.29688 290.2168 C-215.34887 287.78466 -215.39317 285.35234 -215.42969 282.91992 C-215.60095 276.45102 -216.07929 271.76537 -219 266 C-219.47656 263.41016 -219.47656 263.41016 -219.625 261.0625 C-219.84062 258.11859 -220.10886 255.29846 -220.5625 252.375 C-221.05129 248.94652 -220.91062 245.64522 -220.76318 242.19141 C-220.51655 235.25382 -220.82169 230.4254 -225.58984 224.99219 C-230.20414 218.47338 -228.65162 205.67555 -228 198 C-227.3228 195.33168 -226.4395 193.19194 -225.21484 190.73828 C-223.1529 186.09062 -222.03626 181.15124 -220.75122 176.24194 C-220.5523 175.49437 -220.35338 174.74679 -220.14844 173.97656 C-219.9749 173.30706 -219.80136 172.63755 -219.62256 171.94775 C-219 170 -219 170 -217.90869 167.97021 C-216.27466 164.42732 -217.54393 160.68974 -218.52808 157.04346 C-220.66327 147.79796 -220.05031 136.21487 -216.16797 127.61719 C-215 126 -215 126 -212 125 C-211.3125 122.9375 -211.3125 122.9375 -211 121 C-210.175 120.835 -210.175 120.835 -206 120 C-206 118.68 -206 117.36 -206 116 C-204.845 115.67 -204.845 115.67 -199 114 C-199 113.34 -199 112.68 -199 112 C-198.34 112 -197.68 112 -197 112 C-197.04641 111.11699 -197.09281 110.23398 -197.14062 109.32422 C-197.4533 98.92785 -196.09769 89.11164 -189 81 C-186.71422 79.74667 -184.45885 78.91068 -182 78 C-179.42539 75.42539 -179.6899 74.13745 -179.5 70.5625 C-179.29443 66.70301 -179.19709 65.29563 -177 62 C-176.01 62 -175.02 62 -174 62 C-174.33 61.835 -174.33 61.835 -176 61 C-174.54411 56.19556 -171.73096 52.32037 -168 49 C-166.67842 48.62277 -165.34417 48.28651 -164 48 C-162.31296 46.69254 -160.6464 45.35828 -159 44 C-157.68861 43.29114 -156.36223 42.60544 -155 42 C-155.33 41.34 -155.66 40.68 -156 40 C-153.25224 37.66857 -150.52532 35.66984 -147.375 33.9375 C-144.73466 32.42175 -142.8858 31.32952 -141 29 C-141 28.67 -141 28.34 -141 28 C-138.69 28 -136.38 28 -134 28 C-134 27.34 -134 26.68 -134 26 C-132.70794 24.94721 -131.36365 23.95824 -130 23 C-127.0185 20.65739 -124.18533 18.4224 -121.75 15.5 C-120 14 -120 14 -117.40234 13.14453 C-113.37024 11.78815 -109.64097 10.02945 -105.8125 8.1875 C-104.30623 7.47084 -102.79972 6.7547 -101.29297 6.03906 C-100.92776 5.8652 -100.92776 5.8652 -99.07959 4.98535 C-96.2717 3.65492 -93.45141 2.35307 -90.625 1.0625 C-89.79227 0.68223 -88.95953 0.30195 -88.10156 -0.08984 C-81.19388 -3.08146 -71.65352 -3.27608 -64.37891 -1.28125 C-62.41231 -0.33054 -60.7424 0.68578 -59 2 C-58.43926 2.42023 -57.87852 2.84047 -57.30078 3.27344 C-55.81885 4.45754 -54.40507 5.72564 -53 7 C-52.4225 7.495 -51.845 7.99 -51.25 8.5 C-49.17043 10.99549 -48 13.74504 -48 17 C-46.70766 18.37311 -45.37563 19.71035 -44 21 C-43.01 20.34 -42.02 19.68 -41 19 C-38.30078 18.80469 -38.30078 18.80469 -35.3125 18.875 C-34.81557 18.88402 -34.81557 18.88402 -32.30078 18.92969 C-31.54152 18.95289 -30.78227 18.97609 -30 19 C-30.18434 18.23301 -30.36867 17.46602 -30.55859 16.67578 C-31.087 13.47263 -30.39717 11.87654 -29 9 C-28.34 9 -27.68 9 -27 9 C-26.93813 8.37094 -26.93813 8.37094 -26.625 5.1875 C-26.30132 1.89675 -25.93395 0.90093 -24 -2 C-16.79908 -4.40031 -7.17209 -2.21236 0 0 Z " fill="#00817B" transform="translate(316,60)"/>
<path d="M0 0 C7.49818 5.78235 11.28585 14.05139 12.70703 23.31641 C13.03486 30.05605 13.28541 36.85571 11.64453 43.44141 C10.33591 48.85037 11.51356 52.11783 13.76953 57.06641 C15.71874 61.84694 16.71644 66.18754 15.70703 71.31641 C15.21074 72.22391 14.71445 73.13141 14.20312 74.06641 C12.40356 77.97564 12.25296 81.34971 12.33203 85.56641 C12.33783 86.32365 12.34363 87.08089 12.34961 87.86108 C12.4651 92.85357 13.30129 96.93383 15.03906 101.625 C16.53735 107.66195 15.91395 114.13952 15.70703 120.31641 C15.04703 120.31641 14.38703 120.31641 13.70703 120.31641 C13.79984 121.02152 13.89266 121.72664 13.98828 122.45312 C13.59716 126.43492 11.80225 128.1372 9.20703 131.12891 C8.37172 132.10473 7.53641 133.08055 6.67578 134.08594 C6.02609 134.82199 5.37641 135.55805 4.70703 136.31641 C5.30516 136.56391 5.90328 136.81141 6.51953 137.06641 C9.19201 138.59354 10.25548 139.58302 11.70703 142.31641 C11.97643 145.15519 12.08105 147.7367 12.01953 150.56641 C12.02275 151.29215 12.02598 152.01789 12.0293 152.76562 C11.99235 156.53376 11.64923 159.9077 10.66406 163.55078 C9.80845 166.91734 9.55632 168.95187 10.08203 172.31641 C10.19289 173.07953 10.30375 173.84266 10.41797 174.62891 C10.46566 174.90734 10.46566 174.90734 10.70703 176.31641 C11.69703 175.98641 12.68703 175.65641 13.70703 175.31641 C13.68383 174.62934 13.66062 173.94227 13.63672 173.23438 C13.61867 172.33332 13.60063 171.43227 13.58203 170.50391 C13.55883 169.61059 13.53562 168.71727 13.51172 167.79688 C13.70703 165.31641 13.70703 165.31641 15.70703 162.31641 C15.73426 164.52467 15.75353 166.73303 15.76953 168.94141 C15.78113 170.17117 15.79273 171.40094 15.80469 172.66797 C15.71567 175.99364 15.34389 179.05688 14.70703 182.31641 C15.36703 182.31641 16.02703 182.31641 16.70703 182.31641 C16.70703 166.14641 16.70703 149.97641 16.70703 133.31641 C17.03703 133.31641 17.36703 133.31641 17.70703 133.31641 C17.73038 155.65607 17.74802 177.99572 17.75884 200.33539 C17.764 210.70789 17.77103 221.08038 17.78247 231.45288 C17.79243 240.49269 17.79889 249.53249 17.80112 258.5723 C17.80242 263.35956 17.80549 268.1468 17.81276 272.93406 C17.81955 277.43932 17.82164 281.94455 17.82014 286.44982 C17.82041 288.10382 17.82241 289.75782 17.82624 291.41181 C17.83121 293.66968 17.83002 295.92747 17.82729 298.18535 C17.82775 298.81724 17.82775 298.81724 17.83008 302.01498 C17.72149 304.92843 17.33187 307.48142 16.70703 310.31641 C16.59215 312.93074 16.52259 315.52114 16.50171 318.13599 C16.49181 318.90725 16.48191 319.67851 16.47171 320.47314 C16.44024 323.01071 16.4154 325.5483 16.39062 328.08594 C16.37004 329.85 16.34905 331.61405 16.32765 333.3781 C16.27256 338.0124 16.22309 342.64675 16.1748 347.28113 C16.1245 352.01363 16.06886 356.74607 16.01367 361.47852 C15.90625 370.75776 15.80477 380.03706 15.70703 389.31641 C15.37703 389.31641 15.04703 389.31641 14.70703 389.31641 C14.37703 383.37641 14.04703 377.43641 13.70703 371.31641 C10.71066 375.31156 10.27969 376.50277 9.70703 381.19141 C8.88666 386.79727 7.81529 391.20815 3.70703 395.31641 C3.39766 395.97641 3.08828 396.63641 2.76953 397.31641 C1.33311 400.02026 -0.65553 401.00734 -3.35547 402.31641 C-5.29297 403.31641 -5.29297 403.31641 -7.29297 405.31641 C-11.55832 409.58176 -15.36118 410.68086 -21.29297 411.31641 C-21.64617 411.39568 -21.64617 411.39568 -23.43359 411.79688 C-27.45583 412.52769 -31.46561 412.76462 -35.54297 413.00391 C-35.94709 413.03388 -35.94709 413.03388 -37.99219 413.18555 C-43.745 413.52151 -48.74244 412.84739 -54.29297 411.31641 C-54.29297 410.65641 -54.29297 409.99641 -54.29297 409.31641 C-56.27297 408.65641 -56.27297 408.65641 -66.29297 405.31641 C-66.29297 404.65641 -66.29297 403.99641 -66.29297 403.31641 C-66.64359 403.20297 -66.64359 403.20297 -68.41797 402.62891 C-72.04975 400.97092 -74.36705 399.04283 -77.29297 396.31641 C-77.45797 395.82141 -77.45797 395.82141 -78.29297 393.31641 C-80.61969 392.30111 -82.95331 391.30152 -85.29297 390.31641 C-87.58311 386.8812 -87.4714 385.33108 -87.29297 381.31641 C-88.07672 381.04828 -88.86047 380.78016 -89.66797 380.50391 C-92.29297 379.31641 -92.29297 379.31641 -94.29297 376.31641 C-94.62297 375.98641 -94.95297 375.65641 -95.29297 375.31641 C-96.12099 374.05563 -96.93082 372.78287 -97.73047 371.50391 C-97.94639 371.16037 -97.94639 371.16037 -99.03906 369.42188 C-102.29297 363.95815 -102.29297 363.95815 -102.29297 360.31641 C-102.95297 359.98641 -103.61297 359.65641 -104.29297 359.31641 C-104.51984 359.06891 -104.51984 359.06891 -105.66797 357.81641 C-107.29297 356.31641 -107.29297 356.31641 -109.07031 355.97266 C-114.23588 354.4475 -118.29429 349.7769 -122.29297 346.31641 C-123.17855 345.6216 -124.06414 344.9268 -124.97656 344.21094 C-128.78709 340.96132 -130.98687 338.77599 -132.03516 333.77734 C-132.27449 330.27431 -132.29297 326.82548 -132.29297 323.31641 C-132.63281 320.95312 -132.63281 320.95312 -133.29297 319.31641 C-135.28805 318.63516 -137.28936 317.97213 -139.29297 317.31641 C-145.13809 313.89153 -149.59999 309.60388 -152.29297 303.31641 C-153.10848 299.20299 -153.43419 295.2588 -153.50391 291.07031 C-153.53227 289.90307 -153.56063 288.73582 -153.58984 287.5332 C-153.64184 285.10106 -153.68614 282.66875 -153.72266 280.23633 C-153.89392 273.76742 -154.37225 269.08178 -157.29297 263.31641 C-157.76953 260.72656 -157.76953 260.72656 -157.91797 258.37891 C-158.13359 255.435 -158.40183 252.61487 -158.85547 249.69141 C-159.34425 246.26293 -159.20359 242.96163 -159.05615 239.50781 C-158.80952 232.57023 -159.11466 227.74181 -163.88281 222.30859 C-168.49711 215.78978 -166.94458 202.99196 -166.29297 195.31641 C-165.61577 192.64809 -164.73246 190.50835 -163.50781 188.05469 C-161.44587 183.40703 -160.32923 178.46764 -159.04419 173.55835 C-158.84527 172.81077 -158.64635 172.0632 -158.44141 171.29297 C-158.26787 170.62346 -158.09433 169.95396 -157.91553 169.26416 C-157.29297 167.31641 -157.29297 167.31641 -156.20166 165.28662 C-154.56763 161.74373 -155.8369 158.00615 -156.82104 154.35986 C-158.95624 145.11437 -158.34328 133.53127 -154.46094 124.93359 C-153.29297 123.31641 -153.29297 123.31641 -150.29297 122.31641 C-149.60547 120.25391 -149.60547 120.25391 -149.29297 118.31641 C-148.46797 118.15141 -148.46797 118.15141 -144.29297 117.31641 C-144.29297 115.99641 -144.29297 114.67641 -144.29297 113.31641 C-143.13797 112.98641 -143.13797 112.98641 -137.29297 111.31641 C-137.29297 110.65641 -137.29297 109.99641 -137.29297 109.31641 C-136.63297 109.31641 -135.97297 109.31641 -135.29297 109.31641 C-135.33938 108.4334 -135.38578 107.55039 -135.43359 106.64062 C-135.74627 96.24426 -134.39066 86.42805 -127.29297 78.31641 C-125.00719 77.06308 -122.75181 76.22709 -120.29297 75.31641 C-117.71836 72.74179 -117.98287 71.45386 -117.79297 67.87891 C-117.5874 64.01941 -117.49006 62.61204 -115.29297 59.31641 C-114.30297 59.31641 -113.31297 59.31641 -112.29297 59.31641 C-112.62297 59.15141 -112.62297 59.15141 -114.29297 58.31641 C-112.83708 53.51197 -110.02393 49.63678 -106.29297 46.31641 C-104.97138 45.93917 -103.63714 45.60291 -102.29297 45.31641 C-100.60593 44.00895 -98.93937 42.67469 -97.29297 41.31641 C-95.98158 40.60755 -94.6552 39.92184 -93.29297 39.31641 C-93.62297 38.65641 -93.95297 37.99641 -94.29297 37.31641 C-91.54521 34.98497 -88.81829 32.98625 -85.66797 31.25391 C-83.02763 29.73815 -81.17877 28.64592 -79.29297 26.31641 C-79.29297 25.98641 -79.29297 25.65641 -79.29297 25.31641 C-76.98297 25.31641 -74.67297 25.31641 -72.29297 25.31641 C-72.29297 24.65641 -72.29297 23.99641 -72.29297 23.31641 C-71.00091 22.26362 -69.65662 21.27465 -68.29297 20.31641 C-65.31147 17.9738 -62.4783 15.73881 -60.04297 12.81641 C-57.68825 10.79808 -55.24341 10.16876 -52.29297 9.31641 C-51.96297 9.64641 -51.96297 9.64641 -50.29297 11.31641 C-49.53154 10.92783 -48.7701 10.53926 -47.9856 10.13892 C-45.14592 8.69344 -42.30354 7.25348 -39.45923 5.81714 C-38.23123 5.19562 -37.00433 4.57195 -35.77856 3.94604 C-34.01154 3.04424 -32.24018 2.15093 -30.46875 1.25781 C-29.40568 0.71842 -28.3426 0.17903 -27.24731 -0.37671 C-19.11205 -3.97542 -7.79287 -4.70853 0 0 Z " fill="#005D86" transform="translate(254.29296875,62.68359375)"/>
<path d="M0 0 C1.76953 1.10156 1.76953 1.10156 3.375 2.3125 C3.93574 2.73273 4.49648 3.15297 5.07422 3.58594 C6.55615 4.77004 7.96993 6.03814 9.375 7.3125 C9.9525 7.8075 10.53 8.3025 11.125 8.8125 C13.20457 11.30799 14.375 14.05754 14.375 17.3125 C15.66734 18.68561 16.99937 20.02285 18.375 21.3125 C19.365 20.6525 20.355 19.9925 21.375 19.3125 C24.07422 19.11719 24.07422 19.11719 27.0625 19.1875 C27.55943 19.19652 27.55943 19.19652 30.07422 19.24219 C30.83348 19.26539 31.59273 19.28859 32.375 19.3125 C32.19066 18.54551 32.00633 17.77852 31.81641 16.98828 C31.288 13.78513 31.97783 12.18904 33.375 9.3125 C34.035 9.3125 34.695 9.3125 35.375 9.3125 C35.375 7.6625 35.375 6.0125 35.375 4.3125 C36.365 4.3125 37.355 4.3125 38.375 4.3125 C39.035 3.9825 39.695 3.6525 40.375 3.3125 C38.61037 9.41987 36.67943 15.38684 34.375 21.3125 C30.415 21.6425 26.455 21.9725 22.375 22.3125 C22.19823 50.41661 22.03263 78.52078 21.875 106.625 C21.86905 107.68343 21.8631 108.74186 21.85697 109.83237 C21.47381 178.13853 21.28229 246.44276 21.3125 314.75 C21.31292 315.73827 21.31335 316.72653 21.31379 317.74475 C21.32464 342.60068 21.34465 367.45659 21.375 392.3125 C25.335 392.6425 29.295 392.9725 33.375 393.3125 C38.4363 403.55856 38.4363 403.55856 38.15234 407.05078 C37.375 409.3125 37.375 409.3125 35.375 411.3125 C30.59823 400.93892 30.59823 400.93892 32.375 395.3125 C31.54355 395.3473 30.71211 395.38211 29.85547 395.41797 C28.76879 395.44504 27.68211 395.47211 26.5625 395.5 C25.48355 395.5348 24.40461 395.56961 23.29297 395.60547 C20.375 395.3125 20.375 395.3125 18.72064 394.26376 C16.67701 391.30036 16.92741 388.27653 16.92676 384.79932 C16.91496 384.03638 16.90316 383.27344 16.89101 382.48738 C16.85569 379.96289 16.84163 377.43876 16.82812 374.91406 C16.80874 373.15912 16.78819 371.40418 16.76654 369.64926 C16.72416 365.969 16.69152 362.28882 16.6665 358.6084 C16.6343 353.89495 16.58468 349.1819 16.52858 344.46868 C16.48623 340.84331 16.4498 337.2179 16.41549 333.59245 C16.39897 331.85493 16.38141 330.11743 16.36277 328.37993 C16.33824 325.94812 16.32086 323.51636 16.30566 321.08447 C16.29743 320.36845 16.2892 319.65243 16.28072 318.91472 C16.26962 316.17747 16.31429 313.60385 16.87389 310.91816 C17.39203 308.22397 17.49805 305.78312 17.49525 303.04167 C17.49663 301.99986 17.498 300.95804 17.49942 299.88466 C17.49582 298.75249 17.49223 297.62033 17.48853 296.45386 C17.48867 295.25344 17.48882 294.05302 17.48897 292.81622 C17.48839 289.53355 17.48338 286.25092 17.47639 282.96825 C17.47013 279.53428 17.46955 276.10031 17.46837 272.66634 C17.46526 266.16766 17.45706 259.66901 17.44702 253.17035 C17.43583 245.77013 17.43034 238.36992 17.42532 230.96969 C17.41488 215.75062 17.39729 200.53156 17.375 185.3125 C16.715 185.3125 16.055 185.3125 15.375 185.3125 C15.375 179.7025 15.375 174.0925 15.375 168.3125 C15.045 171.6125 14.715 174.9125 14.375 178.3125 C13.715 178.3125 13.055 178.3125 12.375 178.3125 C12.045 178.9725 11.715 179.6325 11.375 180.3125 C8.54764 175.15673 9.40451 169.91532 10.88428 164.42188 C11.6932 160.94469 11.642 157.42709 11.6875 153.875 C11.7165 153.12412 11.74551 152.37324 11.77539 151.59961 C11.82064 147.64223 11.66444 145.76664 9.48047 142.33984 C7.375 140.3125 7.375 140.3125 5.375 139.3125 C6.71161 136.36162 8.22454 134.22933 10.4375 131.875 C12.8977 129.09754 14.14368 127.12926 14.375 123.3125 C15.035 123.3125 15.695 123.3125 16.375 123.3125 C15.81731 107.81258 15.81731 107.81258 13.8125 102.375 C12.21623 97.75919 12.0417 93.40181 12 88.5625 C11.98638 87.84071 11.97277 87.11891 11.95874 86.37524 C11.99939 81.56312 13.09167 78.48773 15.375 74.3125 C16.57234 68.22872 14.86228 63.18783 12.34766 57.67188 C10.226 52.52537 10.57476 49.46929 11.88281 44.09375 C14.03088 31.95545 12.73527 19.27185 5.69531 8.96484 C2.5483 5.02642 -0.9057 2.89684 -5.625 1.3125 C-8.64062 1.01172 -8.64062 1.01172 -11.875 1 C-12.40352 0.99162 -12.40352 0.99162 -15.07812 0.94922 C-24.94445 1.95976 -33.42375 7.10939 -42.06836 11.63672 C-43.01389 12.1227 -43.95941 12.60867 -44.93359 13.10938 C-45.36056 13.33287 -45.36056 13.33287 -47.52124 14.46387 C-48.21548 14.74392 -48.90972 15.02396 -49.625 15.3125 C-50.285 14.9825 -50.945 14.6525 -51.625 14.3125 C-41.23412 2.10132 -15.08266 -7.03665 0 0 Z " fill="#0088A0" transform="translate(253.625,59.6875)"/>
<path d="M0 0 C0.33 0 0.66 0 1 0 C1.04678 22.23603 1.08202 44.47205 1.10362 66.70811 C1.11392 77.03337 1.12796 87.3586 1.15088 97.68384 C1.17085 106.68634 1.18373 115.68883 1.18818 124.69136 C1.19078 129.45536 1.19686 134.21929 1.21146 138.98327 C1.22511 143.47379 1.22921 147.96423 1.22622 152.45477 C1.22676 154.09657 1.2307 155.73838 1.23841 157.38017 C1.27393 165.33531 1.11467 172.9567 -0.54187 180.78056 C-1.10513 183.50931 -1.27679 186.14734 -1.31885 188.93042 C-1.33872 189.95065 -1.35859 190.97087 -1.37906 192.02202 C-1.38483 192.55141 -1.38483 192.55141 -1.41406 195.23047 C-1.43343 196.3469 -1.45279 197.46334 -1.47275 198.6136 C-1.53196 202.13816 -1.57869 205.66275 -1.625 209.1875 C-1.66323 211.59441 -1.70229 214.00132 -1.74219 216.4082 C-1.83762 222.27202 -1.92283 228.13592 -2 234 C-2.33 234 -2.66 234 -3 234 C-3.04898 233.05898 -3.09797 232.11797 -3.14844 231.14844 C-3.2232 229.9032 -3.29797 228.65797 -3.375 227.375 C-3.44461 226.14523 -3.51422 224.91547 -3.58594 223.64844 C-4 220 -4 220 -5.03516 217.25 C-6.47803 212.3898 -6.16852 207.66258 -6.0625 202.625 C-5.82968 189.20777 -5.82968 189.20777 -7 183 C-7.66 182.67 -8.32 182.34 -9 182 C-8.01 181.67 -7.02 181.34 -6 181 C-6 180.01 -6 179.02 -6 178 C-5.34 177.67 -4.68 177.34 -4 177 C-2.65144 171.42086 -2.86008 166.43913 -4.53125 161.00781 C-5.0712 158.69504 -5.03133 156.68174 -4.9375 154.3125 C-4.82695 150.2636 -5.8016 148.42951 -8 145 C-8.5432 142.32424 -8.76878 139.72845 -9 137 C-9.99 137 -10.98 137 -12 137 C-11.12121 129.46753 -11.12121 129.46753 -10.48047 126.99609 C-8.41728 118.42465 -11.07625 110.5916 -15 103 C-15.66 103.99 -16.32 104.98 -17 106 C-18.32 105.67 -19.64 105.34 -21 105 C-19.88122 103.82737 -18.75477 102.66205 -17.625 101.5 C-16.99852 100.85031 -16.37203 100.20063 -15.72656 99.53125 C-14 98 -14 98 -12 98 C-10.04444 94.08889 -10.62671 89.2742 -11 85 C-12.5 82.25 -12.5 82.25 -14 80 C-15.34469 73.41101 -12.03704 69.13304 -8.62891 63.76953 C-5.91247 59.15093 -5.90373 55.7058 -6 50.375 C-6.11063 44.22126 -6.11063 44.22126 -5 42 C-4.34 42 -3.68 42 -3 42 C-3.0232 41.31293 -3.04641 40.62586 -3.07031 39.91797 C-3.08836 39.01691 -3.10641 38.11586 -3.125 37.1875 C-3.1482 36.29418 -3.17141 35.40086 -3.19531 34.48047 C-3 32 -3 32 -1 29 C-0.97277 31.20826 -0.9535 33.41663 -0.9375 35.625 C-0.9259 36.85477 -0.9143 38.08453 -0.90234 39.35156 C-0.99136 42.67724 -1.36314 45.74048 -2 49 C-1.34 49 -0.68 49 0 49 C0 32.83 0 16.66 0 0 Z " fill="#008796" transform="translate(271,196)"/>
<path d="M0 0 C0.99 0 1.98 0 3 0 C3.15407 15.15122 3.3021 30.30249 3.44296 45.45384 C3.50851 52.48912 3.57603 59.52436 3.64819 66.55957 C3.71783 73.34815 3.78195 80.13677 3.8427 86.92544 C3.86678 89.51621 3.89272 92.10696 3.92053 94.6977 C3.95916 98.32464 3.99122 101.95159 4.02173 105.57861 C4.03467 106.65108 4.04762 107.72354 4.06096 108.82851 C4.09548 113.6966 3.93562 118.20491 3 123 C2.89369 124.78575 2.82582 126.57416 2.79468 128.36279 C2.77473 129.3834 2.75479 130.404 2.73424 131.45554 C2.72588 131.99783 2.72588 131.99783 2.68359 134.74219 C2.66281 135.8657 2.64203 136.9892 2.62062 138.14676 C2.55543 141.72278 2.49638 145.29887 2.4375 148.875 C2.39429 151.30469 2.35067 153.73438 2.30664 156.16406 C2.19978 162.1093 2.09796 168.05461 2 174 C1.67 174 1.34 174 1 174 C0.95102 173.05898 0.90203 172.11797 0.85156 171.14844 C0.7768 169.9032 0.70203 168.65797 0.625 167.375 C0.55539 166.14523 0.48578 164.91547 0.41406 163.64844 C0 160 0 160 -1.03516 157.25 C-2.47803 152.3898 -2.16852 147.66258 -2.0625 142.625 C-1.82968 129.20777 -1.82968 129.20777 -3 123 C-3.66 122.67 -4.32 122.34 -5 122 C-4.505 121.835 -4.505 121.835 -2 121 C-2 120.01 -2 119.02 -2 118 C-1.67 117.835 -1.67 117.835 0 117 C1.34843 111.42142 1.13641 106.44369 -0.52734 101.01172 C-1.23113 98.01627 -1.05088 95.13399 -0.875 92.07812 C-1 90 -1 90 -1.99219 88.21875 C-3.47131 84.96238 -3.21108 81.75276 -3.125 78.25 C-3.11598 77.55262 -3.10695 76.85523 -3.09766 76.13672 C-3.0742 74.42433 -3.03833 72.71212 -3 71 C-3.66 70.67 -4.32 70.34 -5 70 C-4.67 69.67 -4.67 69.67 -3 68 C-2.67 68 -2.34 68 -2 68 C-1.94575 65.60386 -1.90621 63.20896 -1.875 60.8125 C-1.85824 60.13896 -1.84148 59.46543 -1.82422 58.77148 C-1.78428 54.67727 -2.28478 51.70197 -4 48 C-4.44881 44.05044 -3.7923 41.22293 -2.4375 37.5625 C-0.24633 31.40242 -1.45314 25.94267 -4 20 C-4.99 19.67 -5.98 19.34 -7 19 C-6.67 17.90688 -6.34 16.81375 -6 15.6875 C-5 12 -5 12 -5 9 C-3.6719 7.32916 -2.33827 5.6627 -1 4 C-0.25 1.6875 -0.25 1.6875 0 0 Z " fill="#000303" transform="translate(267,256)"/>
<path d="M0 0 C0.33 0 0.66 0 1 0 C1.87891 6.15234 1.87891 6.15234 2 8 C1 9 0 10 -1 11 C-0.67 11.99 -0.34 12.98 0 14 C1.55155 20.76261 1.01675 27.70067 0.87305 34.58984 C0.86209 35.58113 0.85113 36.57242 0.83984 37.59375 C0.83142 38.04073 0.83142 38.04073 0.78882 40.30273 C1 43 1 43 3 49 C3.33 36.79 3.66 24.58 4 12 C4.33 12 4.66 12 5 12 C5 36.09 5 60.18 5 85 C4.67 85 4.34 85 4 85 C3.67 79.06 3.34 73.12 3 67 C0.00363 70.99516 -0.42734 72.18636 -1 76.875 C-1.82037 82.48087 -2.89174 86.89174 -7 91 C-7.15469 91.33 -7.15469 91.33 -7.9375 93 C-9.37392 95.70385 -11.36256 96.69094 -14.0625 98 C-16 99 -16 99 -18 101 C-20.26961 103.26961 -21.93369 104.10254 -25 105 C-25.99 104.34 -26.98 103.68 -28 103 C-25.79192 100.61025 -23.53482 99.04005 -20.75 97.375 C-15.40056 93.87864 -10.21118 89.00515 -8.3125 82.72656 C-8.20938 82.1568 -8.10625 81.58703 -8 81 C-8.33 81 -8.66 81 -9 81 C-9.3415 76.79802 -8.56736 74.7756 -6.125 71.375 C-5.59133 70.61961 -5.05766 69.86422 -4.50781 69.08594 C-4.01023 68.39758 -3.51266 67.70922 -3 67 C-0.56231 63.34346 -0.76056 61.31 -1 57 C-1.165 56.835 -1.165 56.835 -2 56 C-2.28485 53.51778 -2.44807 51.03531 -2.62109 48.54297 C-3.00617 45.95859 -3.83488 44.30607 -5 42 C-4.79812 40.38493 -4.58383 38.77011 -4.29688 37.16797 C-3.37431 30.43085 -3.89867 23.63895 -4.8125 16.9375 C-5.4746 10.34259 -3.21319 5.6481 0 0 Z " fill="#0099AE" transform="translate(265,367)"/>
<path d="M0 0 C0.66 0 1.32 0 2 0 C1.81437 0.495 1.62875 0.99 1.4375 1.5 C1.00694 3.96032 1.13988 5.55666 1.5 8 C1.93449 10.94792 2.06936 13.14838 1 16 C1.59812 16.26812 2.19625 16.53625 2.8125 16.8125 C5.01075 18.00584 6.28162 19.21002 8 21 C10.38139 23.21716 11.69508 23.9481 14.9375 24.5 C19.00579 23.83579 20.2808 22.00543 23 19 C25 17.875 25 17.875 27 17 C27.80437 16.44312 28.60875 15.88625 29.4375 15.3125 C32 14 32 14 34.4375 14 C37.96174 15.37531 40.1432 17.51582 43 20 C43.99 20.33 44.98 20.66 46 21 C45.835 21.495 45.835 21.495 45 24 C46.98 24.66 48.96 25.32 51 26 C51.6875 28.25 51.6875 28.25 52 31 C50.6875 32.9375 50.6875 32.9375 49 35 C48.28293 36.98249 47.6171 38.98415 47 41 C46.62875 41.84562 46.2575 42.69125 45.875 43.5625 C44.87676 46.3433 44.69163 48.05964 45 51 C47.83737 55.56927 51.23712 59.28807 56.25 61.3125 C60.93882 60.92177 64.93537 59.55465 69.32812 57.91016 C72 57 72 57 75 57 C75 57.66 75 58.32 75 59 C71.75623 60.20502 68.50417 61.38589 65.25 62.5625 C64.32961 62.90475 63.40922 63.24699 62.46094 63.59961 C61.57148 63.91865 60.68203 64.2377 59.76562 64.56641 C58.94868 64.8649 58.13174 65.1634 57.29004 65.47095 C54.72779 66.06289 53.42773 65.97238 51 65 C48.78125 62.63672 48.78125 62.63672 46.5 59.6875 C43.81761 56.24725 41.15422 53.01802 38 50 C39.77538 44.02433 42.05956 38.70406 45.10938 33.26172 C46.15018 30.61861 46.08386 29.59256 45 27 C41.65714 23.2751 37.87221 20.1518 34 17 C28.71064 18.69733 24.92621 22.1334 20.81641 25.71875 C19.15625 27.07812 19.15625 27.07812 16 29 C13.375 28.48047 13.375 28.48047 11 27 C10.24719 26.53723 9.49437 26.07445 8.71875 25.59766 C7.19827 24.54564 5.67879 23.49218 4.16016 22.4375 C2 21 2 21 -1.0625 19.5625 C-3 18 -3 18 -3.4375 14.9375 C-2 2 -2 2 0 0 Z " fill="#009D86" transform="translate(373,88)"/>
<path d="M0 0 C1 2 1 2 0.1875 4.875 C-1 8 -1 8 -2.05078 9.72266 C-3.40079 12.96156 -3.38149 16.10767 -3.375 19.5625 C-3.37629 20.27052 -3.37758 20.97854 -3.37891 21.70801 C-3.26929 27.20649 -2.1324 31.71783 0.125 36.76562 C1.45395 40.15919 1.13485 42.59545 0 46 C-0.495 46.165 -0.495 46.165 -3 47 C-2.67 47.66 -2.34 48.32 -2 49 C-2.33 49.165 -2.33 49.165 -4 50 C-3.67 51.65 -3.34 53.3 -3 55 C-3.66 54.34 -4.32 53.68 -5 53 C-5.33 53.99 -5.66 54.98 -6 56 C-5.34 56.33 -4.68 56.66 -4 57 C-4.46406 57.36867 -4.92812 57.73734 -5.40625 58.11719 C-8.12258 61.32619 -8.34266 65.34394 -9.15625 69.38281 C-9.43469 70.24648 -9.71313 71.11016 -10 72 C-10.495 72.165 -10.495 72.165 -13 73 C-14.6875 75.0625 -14.6875 75.0625 -16 77 C-17.16436 73.62791 -16.87516 72.07 -15.375 68.875 C-12.9044 63.14458 -11.32967 57.26799 -9.75146 51.24561 C-9.55247 50.49682 -9.35347 49.74804 -9.14844 48.97656 C-8.9749 48.30706 -8.80136 47.63755 -8.62256 46.94775 C-8 45 -8 45 -6.90869 42.97021 C-5.27634 39.43096 -6.53733 35.69244 -7.53247 32.05225 C-8.38891 28.29287 -8.18457 24.46437 -8.1875 20.625 C-8.19975 19.78711 -8.21199 18.94922 -8.22461 18.08594 C-8.23586 13.31538 -7.8471 9.48268 -6 5 C-5.34 5 -4.68 5 -4 5 C-4 4.34 -4 3.68 -4 3 C-2 1.375 -2 1.375 0 0 Z " fill="#003979" transform="translate(105,185)"/>
<path d="M0 0 C0.71672 0.20109 1.43344 0.40219 2.17188 0.60938 C4 2 4 2 4.82812 5.30078 C4.98754 6.63591 5.12746 7.97348 5.25 9.3125 C5.32734 9.97701 5.40469 10.64152 5.48438 11.32617 C5.87974 14.89506 6.08331 18.41077 6 22 C7.98 22.33 9.96 22.66 12 23 C12 23.66 12 24.32 12 25 C13.57926 25.3918 15.16369 25.76281 16.75 26.125 C17.63172 26.33383 18.51344 26.54266 19.42188 26.75781 C22.36763 27.03453 23.54597 26.58029 26 25 C28.38506 22.96828 28.97677 22.06968 30 19 C30.66 18.67 31.32 18.34 32 18 C32.165 17.505 32.165 17.505 33 15 C33.66 14.67 34.32 14.34 35 14 C35.66 13.34 36.32 12.68 37 12 C44.68327 12 50.75753 14.5188 57 19 C57.165 19.495 57.165 19.495 58 22 C53.22231 20.65245 49.40624 18.55832 45.24609 15.92578 C42.30272 14.7126 40.96823 14.8746 38 16 C35.9375 18.07422 35.9375 18.07422 34 20.6875 C31.09089 24.55263 28.11806 28.30271 25 32 C21.36409 31.16672 17.74454 30.27652 14.125 29.375 C13.09246 29.1391 12.05992 28.9032 10.99609 28.66016 C3.45714 26.73846 3.45714 26.73846 1.375 23.375 C1.25125 22.26125 1.1275 21.1475 1 20 C0.898 19.28409 0.79601 18.56817 0.69092 17.83057 C0.36102 15.4317 0.10946 13.03495 -0.125 10.625 C-0.21137 9.79355 -0.29773 8.96211 -0.38672 8.10547 C-0.59719 6.07093 -0.79943 4.03554 -1 2 C-6.14771 1.37971 -11.24727 0.83099 -16.4375 0.75 C-16.94217 0.73711 -16.94217 0.73711 -19.49609 0.67188 C-19.90924 0.72602 -19.90924 0.72602 -22 1 C-22.33 1.495 -22.33 1.495 -24 4 C-24.66 4 -25.32 4 -26 4 C-25.75 1.625 -25.75 1.625 -25 -1 C-18.5786 -5.47867 -7.03995 -2.1716 0 0 Z " fill="#009599" transform="translate(316,60)"/>
<path d="M0 0 C0.33 1.32 0.66 2.64 1 4 C0.75895 4.20496 0.75895 4.20496 -0.46094 5.24219 C-1.09258 5.78102 -1.72422 6.31984 -2.375 6.875 C-3.00148 7.40867 -3.62797 7.94234 -4.27344 8.49219 C-5.55837 9.61432 -6.79372 10.79372 -8 12 C-8.55687 12.55687 -9.11375 13.11375 -9.6875 13.6875 C-11.62881 17.10789 -10.90683 19.24313 -10 23 C-9.03112 25.01526 -8.03587 27.01834 -7 29 C-7 29.99 -7 30.98 -7 32 C-1.06 32.33 4.88 32.66 11 33 C11 34.32 11 35.64 11 37 C4.73 37.33 -1.54 37.66 -8 38 C-9.27875 35.46312 -10.5575 32.92625 -11.875 30.3125 C-12.27445 29.52271 -12.6739 28.73292 -13.08545 27.91919 C-14.8868 24.33055 -16.58893 20.76532 -18 17 C-17.4573 16.46891 -16.91461 15.93781 -16.35547 15.39062 C-15.64004 14.68422 -14.92461 13.97781 -14.1875 13.25 C-13.4798 12.55391 -12.77211 11.85781 -12.04297 11.14062 C-10 9 -10 9 -8.36328 6.73438 C-7.9134 6.16203 -7.46352 5.58969 -7 5 C-6.34 5 -5.68 5 -5 5 C-4.67 4.01 -4.34 3.02 -4 2 C-3.01 2 -2.02 2 -1 2 C-0.67 1.34 -0.34 0.68 0 0 Z " fill="#00A276" transform="translate(460,163)"/>
<path d="M0 0 C0.33 0 0.66 0 1 0 C1.87891 6.15234 1.87891 6.15234 2 8 C1 9 0 10 -1 11 C-0.67 11.99 -0.34 12.98 0 14 C1.54204 20.76782 1.0481 27.69546 0.96094 34.58984 C0.92223 39.55147 1.13263 44.10279 2 49 C1.0625 52.375 1.0625 52.375 0 55 C-0.33 55 -0.66 55 -1 55 C-1.06059 54.69836 -1.06059 54.69836 -1.36719 53.17188 C-1.53477 52.37266 -1.70234 51.57344 -1.875 50.75 C-2.03742 49.96109 -2.19984 49.17219 -2.36719 48.35938 C-3 46 -3 46 -4.09375 43.89062 C-5.26452 41.44815 -4.7623 39.76661 -4.29688 37.16797 C-3.37431 30.43085 -3.89867 23.63895 -4.8125 16.9375 C-5.4746 10.34259 -3.21319 5.6481 0 0 Z " fill="#008195" transform="translate(265,367)"/>
<path d="M0 0 C0.33 0 0.66 0 1 0 C1 56.76 1 113.52 1 172 C0.67 172 0.34 172 0 172 C0 132.73 0 93.46 0 53 C-0.66 53 -1.32 53 -2 53 C-2 51.68 -2 50.36 -2 49 C-1.34 49 -0.68 49 0 49 C0 32.83 0 16.66 0 0 Z " fill="#000202" transform="translate(271,196)"/>
<path d="M0 0 C1.32 0.66 2.64 1.32 4 2 C3.29204 7.33535 0.75467 11.78753 -1.73633 16.47266 C-3.35358 19.72028 -4.16256 21.3914 -3.20703 24.96875 C-2.80871 25.63906 -2.41039 26.30937 -2 27 C-2.99 27.66 -3.98 28.32 -5 29 C-8.875 27.25 -8.875 27.25 -10 25 C-10.21087 17.87576 -7.62615 12.92864 -4 7 C-3.4225 5.845 -2.845 4.69 -2.25 3.5 C-1 1 -1 1 0 0 Z " fill="#00604F" transform="translate(416,114)"/>
<path d="M0 0 C-1 3 -1 3 -3 5 C-3.45375 5.51562 -3.9075 6.03125 -4.375 6.5625 C-6.24272 8.21471 -7.59916 8.4813 -10 9 C-9.88602 11.43847 -9.75929 13.87513 -9.625 16.3125 C-9.59406 17.00279 -9.56313 17.69309 -9.53125 18.4043 C-9.31875 22.06991 -9.08066 23.87901 -7 27 C-4.83594 27.94922 -4.83594 27.94922 -2.375 28.6875 C-1.55773 28.93887 -0.74047 29.19023 0.10156 29.44922 C0.72805 29.63098 1.35453 29.81273 2 30 C2 30.66 2 31.32 2 32 C0.43634 31.71459 -1.12588 31.42137 -2.6875 31.125 C-3.55762 30.96258 -4.42773 30.80016 -5.32422 30.63281 C-10.55189 29.39649 -10.55189 29.39649 -13 28 C-13.89062 25.46094 -13.89062 25.46094 -14.25 22.375 C-14.38664 21.30508 -14.52328 20.23516 -14.66406 19.13281 C-14.77492 18.09898 -14.88578 17.06516 -15 16 C-15.20696 14.41649 -15.41505 12.83312 -15.625 11.25 C-15.74875 10.1775 -15.8725 9.105 -16 8 C-15.40832 7.67387 -14.81664 7.34773 -14.20703 7.01172 C-10.78864 5.12129 -7.38756 3.23913 -4.0625 1.1875 C-2 0 -2 0 0 0 Z " fill="#009F69" transform="translate(476,222)"/>
</svg>
