<?xml version="1.0" encoding="UTF-8"?>
<svg xmlns="http://www.w3.org/2000/svg" viewBox="692 0 1711 680" width="1711" height="680">
<path d="M0 0 C7.80457 0.18674 7.80457 0.18674 11.45288 2.49683 C13.25214 5.15063 14.43942 7.75735 15.6521 10.72339 C16.81023 12.6373 18.00036 14.53207 19.2146 16.41089 C20.69747 18.84622 22.1763 21.28378 23.6521 23.72339 C28.30457 31.39874 32.97077 39.0656 37.6521 46.72339 C38.3345 47.84133 39.01689 48.95927 39.71997 50.11108 C41.77079 53.46714 43.83581 56.81434 45.9021 60.16089 C46.54607 61.21574 47.19003 62.2706 47.85352 63.35742 C48.4522 64.32253 49.05089 65.28763 49.66772 66.28198 C50.19656 67.14106 50.7254 68.00014 51.27026 68.88525 C51.49827 69.18855 51.49827 69.18855 52.6521 70.72339 C53.3121 70.72339 53.9721 70.72339 54.6521 70.72339 C55.83789 69.12549 55.83789 69.12549 57.15601 66.87573 C57.6448 66.05033 58.1336 65.22493 58.63721 64.37451 C59.15775 63.47902 59.67829 62.58352 60.2146 61.66089 C61.30569 59.8119 62.39684 57.96294 63.48804 56.11401 C64.02654 55.19556 64.56505 54.2771 65.11987 53.33081 C67.1694 49.8431 69.25205 46.37592 71.3396 42.91089 C72.06512 41.70271 72.79038 40.49438 73.51538 39.28589 C73.8681 38.69808 74.22082 38.11026 74.58423 37.50464 C75.66413 35.70332 76.74229 33.90097 77.82007 32.09839 C80.09066 28.30265 82.36847 24.51131 84.6521 20.72339 C85.12535 19.93835 85.59859 19.15331 86.08618 18.34448 C87.5838 15.86446 89.08604 13.3873 90.5896 10.91089 C91.06252 10.12738 91.53545 9.34387 92.02271 8.53662 C92.4663 7.80806 92.9099 7.0795 93.36694 6.32886 C93.76003 5.6807 94.15311 5.03254 94.55811 4.36475 C95.6521 2.72339 95.6521 2.72339 97.6521 0.72339 C105.5721 0.72339 113.4921 0.72339 121.6521 0.72339 C121.6521 39.99339 121.6521 79.26339 121.6521 119.72339 C113.0721 119.72339 104.4921 119.72339 95.6521 119.72339 C93.81421 117.8855 94.47905 114.92575 94.44678 112.45947 C94.43688 111.80584 94.42698 111.1522 94.41678 110.47876 C94.38508 108.30904 94.36037 106.13929 94.33569 103.96948 C94.31513 102.46875 94.29413 100.96802 94.27272 99.4673 C94.21743 95.51027 94.16805 91.55319 94.11987 87.59607 C94.06971 83.56099 94.014 79.52598 93.95874 75.49097 C93.85107 67.56851 93.74965 59.64598 93.6521 51.72339 C93.44781 52.07939 93.44781 52.07939 92.414 53.881 C77.30507 80.19225 77.30507 80.19225 69.9021 92.16089 C69.23179 93.25853 68.56147 94.35616 67.87085 95.48706 C67.22632 96.53313 66.58179 97.57921 65.91772 98.65698 C65.63816 99.11101 65.63816 99.11101 64.22339 101.40869 C62.00976 104.66963 60.69088 106.41744 56.86694 107.5437 C53.04387 107.89912 50.34441 107.83996 46.6521 106.72339 C42.89026 102.92333 40.46149 98.662 37.90991 93.99097 C36.19092 90.89198 34.31903 87.89724 32.448 84.88843 C31.03653 82.61358 29.64582 80.32733 28.26147 78.03589 C25.95057 74.21258 23.61946 70.40252 21.2771 66.59839 C20.69187 65.64706 20.10663 64.69573 19.50366 63.71558 C17.23175 60.04409 14.9404 56.38467 12.6521 52.72339 C12.3221 74.83339 11.9921 96.94339 11.6521 119.72339 C3.0721 119.72339 -5.5079 119.72339 -14.3479 119.72339 C-15.95662 118.11467 -15.47391 116.39438 -15.47488 114.16809 C-15.4777 113.18371 -15.48052 112.19932 -15.48343 111.1851 C-15.4814 110.09623 -15.47938 109.00736 -15.47729 107.8855 C-15.47905 106.74579 -15.4808 105.60608 -15.4826 104.43184 C-15.48703 100.64359 -15.48408 96.85539 -15.48071 93.06714 C-15.48139 90.44779 -15.48236 87.82845 -15.48361 85.20911 C-15.48543 79.7111 -15.48303 74.2131 -15.47827 68.71509 C-15.47283 62.35022 -15.47459 55.98538 -15.4801 49.62051 C-15.48517 43.50855 -15.48465 37.39659 -15.48172 31.28462 C-15.48105 28.67857 -15.48188 26.07252 -15.4842 23.46648 C-15.48672 19.83139 -15.48288 16.19636 -15.47729 12.56128 C-15.47932 11.47241 -15.48134 10.38354 -15.48343 9.26167 C-15.48061 8.27729 -15.47779 7.2929 -15.47488 6.27869 C-15.47451 5.41811 -15.47413 4.55753 -15.47374 3.67088 C-15.11687 -1.85203 -4.13974 0.0461 0 0 Z " fill="#00164F" transform="translate(716.3806146572105,332.276611328125)"/>
<path d="M0 0 C8.85769 0.24826 8.85769 0.24826 12.5127 3.33838 C14.95095 6.0021 16.88113 8.97254 18.74951 12.05469 C20.71088 15.18263 23.05265 17.99678 25.36426 20.86963 C26.27492 22.0385 27.18508 23.20778 28.09473 24.37744 C31.50802 28.709 35.11591 32.86708 38.72729 37.03345 C41.95501 40.76673 45.01901 44.58294 48.00879 48.51025 C51.11212 52.42892 54.3934 56.19469 57.66504 59.97314 C58.15746 60.54227 58.64988 61.11139 59.15723 61.69775 C59.59446 62.20081 60.03169 62.70387 60.48218 63.22217 C62.34184 65.42347 64.12941 67.67981 65.92676 69.93213 C65.93707 69.08244 65.94737 68.23275 65.95799 67.35732 C66.05579 59.36669 66.15828 51.37614 66.2661 43.38564 C66.32136 39.27722 66.37479 35.1688 66.42407 31.0603 C66.47166 27.0986 66.524 23.13698 66.5797 19.17538 C66.60015 17.66067 66.61886 16.14594 66.63583 14.63118 C66.65982 12.51664 66.68988 10.40228 66.72144 8.28784 C66.73698 7.08205 66.75252 5.87626 66.76854 4.63393 C66.92676 1.93213 66.92676 1.93213 67.92676 0.93213 C69.84134 0.83241 71.75958 0.80132 73.67676 0.79932 C74.84207 0.79803 76.00738 0.79674 77.20801 0.79541 C78.4352 0.79928 79.66238 0.80314 80.92676 0.80713 C81.54035 0.8052 81.54035 0.8052 84.64551 0.79541 C85.22816 0.79605 85.22816 0.79605 88.17676 0.79932 C89.25441 0.80044 90.33207 0.80157 91.44238 0.80273 C93.92676 0.93213 93.92676 0.93213 94.92676 1.93213 C95.02258 3.46299 95.04864 4.99827 95.04701 6.53212 C95.0477 7.02924 95.0477 7.02924 95.05118 9.54498 C95.04938 10.09488 95.04938 10.09488 95.04028 12.87769 C95.04043 14.02875 95.04058 15.17982 95.04073 16.36577 C95.04003 20.19129 95.03223 24.01677 95.02441 27.84229 C95.02255 30.48644 95.02113 33.1306 95.02013 35.77477 C95.01701 42.03628 95.0088 48.29778 94.99878 54.55929 C94.98761 61.68614 94.98211 68.813 94.97708 75.93985 C94.96662 90.60395 94.94902 105.26804 94.92676 119.93213 C91.24009 120.13687 87.55489 120.26023 83.86426 120.36963 C83.34509 120.39896 83.34509 120.39896 80.71777 120.54736 C73.09493 120.71676 73.09493 120.71676 69.6983 118.43533 C67.93783 116.68428 66.4173 114.91491 64.92676 112.93213 C64.1791 112.0633 63.43145 111.19447 62.66113 110.29932 C62.33371 109.88811 62.33371 109.88811 60.67676 107.80713 C57.29637 103.609 53.85992 99.4714 50.36426 95.36963 C46.45288 90.76928 42.63079 86.11105 38.87598 81.38135 C33.39696 74.49689 27.78149 67.72453 22.11426 60.99463 C21.65817 60.45089 21.20208 59.90714 20.73218 59.34692 C18.23319 56.39115 15.6727 53.67807 12.92676 50.93213 C12.92676 73.70213 12.92676 96.47213 12.92676 119.93213 C3.68676 119.93213 -5.55324 119.93213 -15.07324 119.93213 C-15.09579 104.56411 -15.11422 89.1961 -15.12505 73.82807 C-15.13022 66.69291 -15.13726 59.55776 -15.14868 52.42261 C-15.15969 45.54323 -15.16552 38.66387 -15.16812 31.78448 C-15.16997 29.15331 -15.1736 26.52214 -15.17897 23.89098 C-15.18618 20.21987 -15.18723 16.5488 -15.18677 12.87769 C-15.19036 11.77789 -15.19396 10.6781 -15.19766 9.54498 C-15.19698 9.04786 -15.19698 9.04786 -15.1935 6.53212 C-15.19442 5.66287 -15.19534 4.79362 -15.19629 3.89803 C-14.85 -1.63461 -4.14588 0.07406 0 0 Z " fill="#00164F" transform="translate(2075.1059564540856,332.06787109375)"/>
<path d="M0 0 C17.70216 -0.62941 35.51598 4.75869 49.08203 16.22266 C61.49346 27.98196 68.18997 43.08036 68.69629 60.1665 C68.78371 77.2816 63.27994 92.21339 51.51172 104.84375 C38.03447 117.61167 19.98138 123.88747 1.48438 123.40625 C-14.99175 121.95979 -29.4611 117.93503 -42.36328 107.15625 C-43.08258 106.56199 -43.80188 105.96773 -44.54297 105.35547 C-52.71967 97.92644 -58.78372 86.87954 -61.36328 76.15625 C-61.54504 75.42664 -61.7268 74.69703 -61.91406 73.94531 C-64.61441 57.17967 -61.06881 41.58643 -52.36328 27.15625 C-41.35024 12.11203 -25.95542 4.3703 -8.07031 0.68359 C-5.39187 0.29149 -2.69938 0.17847 0 0 Z M-21.36328 33.15625 C-21.99234 33.68219 -22.62141 34.20812 -23.26953 34.75 C-28.18129 39.16226 -30.4154 43.90417 -32.36328 50.15625 C-32.55535 50.75953 -32.74742 51.36281 -32.94531 51.98438 C-34.79482 61.59492 -34.2734 72.59332 -29.36328 81.15625 C-23.30216 89.63689 -14.97647 96.88623 -4.47656 98.90625 C6.52225 100.2074 16.41589 98.57551 25.51172 91.90625 C33.78183 84.83254 38.65217 76.47571 39.94922 65.51562 C40.26616 52.91701 36.58526 42.52423 28.05469 33.27344 C20.09026 26.29974 10.95224 23.80611 0.60938 23.94531 C-8.21436 24.57144 -14.81611 27.27489 -21.36328 33.15625 Z " fill="#00164E" transform="translate(1412.3959955165856,330.84375)"/>
<path d="M0 0 C10.89337 11.73839 16.73716 26.85908 16.46484 42.92578 C15.45037 60.49223 9.34212 75.40618 -3.46094 87.61719 C-16.60487 98.72831 -34.50284 104.37745 -51.71484 103.78125 C-71.88954 101.84342 -89.24289 95.48284 -102.68359 79.49609 C-112.90015 65.64807 -116.23745 48.98353 -114.29297 32.10547 C-111.3255 15.44197 -103.44386 2.52121 -89.88672 -7.58984 C-62.38313 -26.00326 -23.97783 -22.8232 0 0 Z M-78.14844 17.60938 C-85.60211 26.76999 -86.62303 38.09368 -85.68359 49.49609 C-83.44288 59.71934 -77.45595 68.69946 -68.68359 74.49609 C-57.92802 79.77273 -47.90752 80.99071 -36.38672 77.53125 C-26.97029 73.92525 -19.58217 66.98499 -15.30859 57.87109 C-13.92494 54.39421 -12.98391 51.25003 -12.68359 47.49609 C-12.62043 46.71879 -12.55727 45.94148 -12.49219 45.14062 C-12.04053 35.04398 -14.4594 25.03967 -21.05859 17.20312 C-29.17854 8.67328 -37.59161 4.6881 -49.43359 4.24609 C-60.90584 4.40112 -70.33828 9.40782 -78.14844 17.60938 Z " fill="#00154F" transform="translate(2024.7163080165856,350.50390625)"/>
<path d="M0 0 C0.84732 0.0036 1.69464 0.00719 2.56764 0.01089 C3.0115 0.01082 3.0115 0.01082 5.25771 0.01045 C8.20666 0.01115 11.15556 0.01895 14.10451 0.02676 C16.14332 0.02863 18.18213 0.03005 20.22095 0.03105 C25.59845 0.03488 30.97592 0.04471 36.35341 0.05576 C41.83619 0.06597 47.31898 0.07055 52.80177 0.07559 C63.56806 0.08633 74.33433 0.10393 85.1006 0.12442 C85.1006 7.71442 85.1006 15.30442 85.1006 23.12442 C64.3106 23.12442 43.5206 23.12442 22.1006 23.12442 C22.1006 31.04442 22.1006 38.96442 22.1006 47.12442 C40.5806 47.12442 59.0606 47.12442 78.1006 47.12442 C78.1006 54.38442 78.1006 61.64442 78.1006 69.12442 C59.6206 69.12442 41.1406 69.12442 22.1006 69.12442 C22.1006 78.03442 22.1006 86.94442 22.1006 96.12442 C43.8806 96.12442 65.6606 96.12442 88.1006 96.12442 C88.1006 103.38442 88.1006 110.64442 88.1006 118.12442 C86.23373 119.9913 83.55779 119.24449 81.07428 119.24884 C80.20826 119.24525 79.34223 119.24165 78.44997 119.23795 C77.99635 119.23802 77.99635 119.23802 75.70079 119.23839 C72.6869 119.23769 69.67307 119.22989 66.65919 119.22208 C64.57554 119.22021 62.49189 119.21879 60.40823 119.21779 C54.91237 119.21396 49.41653 119.20413 43.92067 119.19308 C38.31724 119.18287 32.7138 119.17829 27.11037 119.17325 C16.1071 119.16251 5.10385 119.14543 -5.8994 119.12442 C-6.76928 116.11936 -7.02497 113.44631 -7.02638 110.32225 C-7.0292 109.35898 -7.03202 108.39572 -7.03493 107.40326 C-7.0329 106.35323 -7.03088 105.3032 -7.02879 104.22134 C-7.02967 103.6659 -7.02967 103.6659 -7.0341 100.85503 C-7.03851 97.18049 -7.03559 93.50599 -7.03221 89.83145 C-7.03288 87.28366 -7.03385 84.73586 -7.03511 82.18806 C-7.03659 76.84922 -7.03453 71.51038 -7.02977 66.17154 C-7.02432 59.99236 -7.0261 53.8132 -7.0316 47.63402 C-7.03667 41.69344 -7.03615 35.75287 -7.03321 29.81229 C-7.03255 27.2816 -7.03337 24.75091 -7.03569 22.22022 C-7.03822 18.69323 -7.03438 15.1663 -7.02879 11.63931 C-7.03082 10.58321 -7.03284 9.5271 -7.03493 8.439 C-7.03211 7.48419 -7.02929 6.52938 -7.02638 5.54564 C-7.02601 4.71108 -7.02563 3.87652 -7.02524 3.01667 C-6.74517 -1.1947 -3.46581 0.00621 0 0 Z " fill="#00174F" transform="translate(871.9321130702964,332.8755798339844)"/>
<path d="M0 0 C0.8364 0.00202 1.6728 0.00405 2.53455 0.00613 C2.97273 0.00526 2.97273 0.00526 5.19019 0.00082 C8.10187 -0.0036 11.01349 -0.00066 13.92517 0.00272 C15.93917 0.00204 17.95317 0.00107 19.96716 -0.00018 C24.19406 -0.00166 28.42093 0.00049 32.64783 0.00516 C38.07898 0.01085 43.51008 0.00758 48.94122 0.00159 C53.10177 -0.00202 57.2623 -0.00088 61.42285 0.00171 C63.42603 0.00238 65.4292 0.00155 67.43237 -0.00077 C70.22688 -0.00329 73.0213 0.00055 75.8158 0.00613 C76.234 0.00512 76.234 0.00512 78.35034 0 C84.06091 0.02127 84.06091 0.02127 85.17517 1.13553 C85.17517 8.39553 85.17517 15.65553 85.17517 23.13553 C64.05517 23.13553 42.93517 23.13553 21.17517 23.13553 C21.50517 31.05553 21.83517 38.97553 22.17517 47.13553 C40.32517 47.13553 58.47517 47.13553 77.17517 47.13553 C77.17517 54.39553 77.17517 61.65553 77.17517 69.13553 C58.69517 69.13553 40.21517 69.13553 21.17517 69.13553 C21.50517 78.04553 21.83517 86.95553 22.17517 96.13553 C43.62517 96.13553 65.07517 96.13553 87.17517 96.13553 C88.10808 98.93425 88.30377 100.65542 88.30798 103.54959 C88.30927 104.39264 88.31056 105.23568 88.31189 106.10428 C88.30802 106.98084 88.30416 107.8574 88.30017 108.76053 C88.30404 109.64483 88.30791 110.52912 88.31189 111.44022 C88.3106 112.28068 88.30931 113.12115 88.30798 113.98709 C88.30686 114.75876 88.30573 115.53042 88.30457 116.32547 C88.17517 118.13553 88.17517 118.13553 87.17517 119.13553 C84.28911 119.2361 81.42695 119.27168 78.54041 119.26492 C77.63478 119.26668 76.72916 119.26843 75.7961 119.27023 C72.78702 119.27465 69.778 119.27171 66.76892 119.26834 C64.68766 119.26901 62.6064 119.26998 60.52515 119.27124 C56.15702 119.27272 51.7889 119.27056 47.42078 119.2659 C41.80803 119.2602 36.19532 119.26348 30.58257 119.26947 C26.28306 119.27308 21.98355 119.27194 17.68404 119.26934 C15.61388 119.26867 13.54372 119.2695 11.47356 119.27182 C8.58566 119.27435 5.69783 119.27051 2.80994 119.26492 C1.94548 119.26695 1.08103 119.26897 0.19038 119.27106 C-5.71057 119.24979 -5.71057 119.24979 -6.82483 118.13553 C-6.92278 116.61967 -6.95115 115.09925 -6.95181 113.58023 C-6.95463 112.59585 -6.95745 111.61146 -6.96036 110.59724 C-6.95833 109.50837 -6.95631 108.4195 -6.95422 107.29764 C-6.95598 106.15793 -6.95773 105.01822 -6.95953 103.84398 C-6.96395 100.05573 -6.96101 96.26753 -6.95764 92.47928 C-6.95831 89.85993 -6.95928 87.24059 -6.96054 84.62125 C-6.96236 79.12324 -6.95996 73.62524 -6.9552 68.12723 C-6.94976 61.76236 -6.95152 55.39752 -6.95703 49.03265 C-6.9621 42.92069 -6.96158 36.80873 -6.95864 30.69676 C-6.95798 28.09071 -6.9588 25.48466 -6.96112 22.87862 C-6.96365 19.24353 -6.95981 15.6085 -6.95422 11.97342 C-6.95625 10.88455 -6.95827 9.79568 -6.96036 8.67381 C-6.95754 7.68943 -6.95472 6.70504 -6.95181 5.69083 C-6.95144 4.83025 -6.95106 3.96967 -6.95067 3.08302 C-6.67695 -1.15295 -3.51654 0.0131 0 0 Z " fill="#00174F" transform="translate(2202.857543368148,332.8644714355469)"/>
<path d="M0 0 C9.9 0 19.8 0 30 0 C37.59667 16.02224 45.18966 32.03806 52.375 48.25 C58.23415 61.46362 64.40454 74.52079 70.646 87.55762 C74.20411 95.00153 77.70747 102.4632 81.03906 110.01172 C81.33977 110.68806 81.64047 111.3644 81.95029 112.06123 C84 116.75806 84 116.75806 84 119 C73.77 119 63.54 119 53 119 C51.35 115.04 51.35 115.04 43 95 C24.19 94.67 5.38 94.34 -14 94 C-14.99 96.97 -15.98 99.94 -17 103 C-18.01994 105.67923 -19.05237 108.34269 -20.125 111 C-20.38926 111.66645 -20.65352 112.33289 -20.92578 113.01953 C-22.87317 117.87317 -22.87317 117.87317 -24 119 C-26.14559 119.08776 -28.29404 119.10695 -30.44141 119.09766 C-31.74658 119.09443 -33.05176 119.09121 -34.39648 119.08789 C-35.78516 119.07953 -37.17383 119.07107 -38.5625 119.0625 C-39.95508 119.05749 -41.34765 119.05292 -42.74023 119.04883 C-46.1602 119.03699 -49.58008 119.02051 -53 119 C-50.61727 111.00978 -47.18283 103.57027 -43.68124 96.02609 C-41.85989 92.10127 -40.05439 88.16914 -38.24609 84.23828 C-37.88137 83.44664 -37.51666 82.655 -37.14088 81.83937 C-33.94277 74.89281 -30.80424 67.92099 -27.6875 60.9375 C-22.52442 49.38355 -17.32718 37.84531 -12.11319 26.31424 C-11.25072 24.40672 -10.38856 22.49907 -9.5267 20.59128 C-8.31681 17.91334 -7.10584 15.23589 -5.89453 12.55859 C-5.53054 11.75265 -5.16655 10.9467 -4.79153 10.11633 C-4.62214 9.74228 -4.62214 9.74228 -3.76489 7.84937 C-3.47101 7.19959 -3.17713 6.54982 -2.87434 5.88036 C-1.95444 3.90202 -0.97571 1.95142 0 0 Z M15 29 C10.71431 37.24261 6.94016 45.59482 3.42041 54.18555 C2.61059 56.16013 1.79205 58.13094 0.97266 60.10156 C0.45262 61.36177 -0.06694 62.62218 -0.58594 63.88281 C-0.81821 64.44686 -0.81821 64.44686 -1.99365 67.30127 C-3 70 -3 70 -3 72 C9.21 72 21.42 72 34 72 C28.02944 57.65407 22.04351 43.31534 16 29 C15.67 29 15.34 29 15 29 Z " fill="#00164F" transform="translate(1150.0327142665856,333.0)"/>
<path d="M0 0 C0.94875 0.86625 1.8975 1.7325 2.875 2.625 C1.98721 7.78318 -1.4232 10.19977 -5.125 13.625 C-5.47176 13.96209 -5.47176 13.96209 -7.22656 15.66797 C-7.91492 16.31379 -8.60328 16.95961 -9.3125 17.625 C-9.94543 18.22312 -10.57836 18.82125 -11.23047 19.4375 C-13.125 20.625 -13.125 20.625 -15.08594 20.51953 C-17.57078 19.42944 -19.43042 17.99156 -21.5625 16.3125 C-31.86149 8.97334 -43.40793 7.15098 -55.77734 9.02734 C-64.55841 11.14978 -72.37897 16.67634 -77.625 24 C-83.45188 33.88548 -85.05275 44.93969 -82.24609 56.12891 C-78.80184 65.93877 -74.43863 72.14141 -65.1875 77 C-52.69205 82.70512 -41.19487 83.02196 -28.125 78.625 C-27.135 77.965 -26.145 77.305 -25.125 76.625 C-24.78697 74.07921 -24.63621 71.76351 -24.61328 69.21094 C-24.60431 68.84612 -24.60431 68.84612 -24.55888 66.99991 C-24.50465 64.66666 -24.47084 62.33363 -24.4375 60 C-24.40434 58.41924 -24.36985 56.83851 -24.33398 55.25781 C-24.24641 51.38018 -24.18646 47.50349 -24.125 43.625 C-15.545 43.625 -6.965 43.625 1.875 43.625 C2.12818 50.33798 2.34677 57.03433 2.47925 63.74829 C2.53446 66.02914 2.60945 68.30959 2.70483 70.58911 C3.47647 89.50869 3.47647 89.50869 -0.38965 94.61768 C-3.27303 96.49291 -5.84674 97.61559 -9.125 98.625 C-10.29289 99.17672 -11.46078 99.72844 -12.66406 100.29688 C-34.85887 108.05101 -57.80593 109.43057 -79.5813 99.51855 C-85.45592 96.66178 -90.40004 93.15171 -95.125 88.625 C-95.90359 87.89797 -96.68219 87.17094 -97.48438 86.42188 C-109.28188 74.46601 -113.52437 59.47662 -113.42383 43.01099 C-112.99834 26.40765 -105.97307 12.1315 -94.125 0.625 C-93.58488 0.06426 -93.04477 -0.49648 -92.48828 -1.07422 C-68.43847 -24.15477 -24.09754 -20.55806 0 0 Z " fill="#00154E" transform="translate(1086.1577142665856,347.375)"/>
<path d="M0 0 C1.21043 -0.00129 2.42086 -0.00258 3.66797 -0.00391 C4.94285 -0.00004 6.21773 0.00383 7.53125 0.00781 C8.16869 0.00588 8.16869 0.00588 11.39453 -0.00391 C11.99975 -0.00326 11.99975 -0.00326 15.0625 0 C16.18205 0.00113 17.3016 0.00226 18.45508 0.00342 C21.03125 0.13281 21.03125 0.13281 22.03125 1.13281 C22.13958 3.34416 22.17756 5.55898 22.18896 7.77295 C22.19151 8.12019 22.19151 8.12019 22.20436 9.87746 C22.21509 11.39217 22.2237 12.90689 22.23048 14.42163 C22.24226 16.82757 22.26172 19.23332 22.2836 21.63919 C22.3452 28.48238 22.39902 35.32556 22.43262 42.16895 C22.45371 46.3524 22.48915 50.53554 22.53337 54.71881 C22.54743 56.30619 22.55623 57.89361 22.55943 59.48104 C22.61101 82.68409 22.61101 82.68409 30.42188 90.76562 C36.954 96.31476 44.83178 96.79268 53.03125 96.13281 C59.42803 94.90546 64.96124 92.33397 69.03125 87.13281 C74.55602 76.45271 74.178 64.80835 74.10641 53.06834 C74.09349 50.92914 74.0871 48.79 74.08228 46.65077 C74.07095 42.12392 74.05165 37.59713 74.03125 33.07031 C74.00764 27.79026 73.9873 22.51023 73.97531 17.23013 C73.96882 15.12001 73.95632 13.00998 73.9436 10.89989 C73.9403 9.63089 73.937 8.36189 73.93359 7.05444 C73.92836 5.93211 73.92312 4.80977 73.91772 3.65343 C74.03125 1.13281 74.03125 1.13281 75.03125 0.13281 C77.0309 0.04523 79.03361 0.02585 81.03516 0.03516 C82.2501 0.03838 83.46504 0.0416 84.7168 0.04492 C85.99619 0.0533 87.27559 0.06168 88.59375 0.07031 C89.87701 0.07482 91.16027 0.07934 92.48242 0.08398 C95.66541 0.09582 98.84831 0.1123 102.03125 0.13281 C102.12444 10.32165 102.19526 20.51038 102.2385 30.69956 C102.25926 35.43218 102.28737 40.16452 102.33301 44.89697 C102.37687 49.47467 102.40047 54.05208 102.41076 58.62997 C102.41808 60.36566 102.43237 62.10135 102.45417 63.83692 C102.61998 77.60114 101.71916 90.74497 93.03125 102.13281 C92.28875 103.16406 91.54625 104.19531 90.78125 105.25781 C79.79766 116.74066 64.12881 121.08325 48.59375 121.50781 C33.26789 121.03827 18.5623 117.62459 7.03125 106.88281 C-2.71698 96.19238 -6.31654 83.45658 -6.64844 69.25391 C-6.68146 68.23196 -6.71448 67.21001 -6.7485 66.15709 C-7.08977 54.40084 -7.11961 42.63901 -7.09912 30.87866 C-7.09364 27.11894 -7.09917 23.35933 -7.10547 19.59961 C-7.10481 17.20573 -7.10353 14.81185 -7.10156 12.41797 C-7.10359 11.29536 -7.10561 10.17275 -7.1077 9.01613 C-7.10454 7.99253 -7.10139 6.96893 -7.09814 5.91431 C-7.09735 5.01185 -7.09655 4.10939 -7.09573 3.17958 C-6.82732 -1.14684 -3.63624 0.00366 0 0 Z " fill="#00164F" transform="translate(1608.0014642665856,332.8671875)"/>
<path d="M0 0 C-1.49359 4.84287 -3.45034 9.31351 -5.625 13.875 C-5.94984 14.56336 -6.27469 15.25172 -6.60938 15.96094 C-7.40323 17.64205 -8.2012 19.32123 -9 21 C-12.56167 19.85863 -15.94489 18.62355 -19.3125 17 C-30.36393 12.11257 -44.74443 10.66441 -56.4375 14.3125 C-59.50965 15.76773 -60.94796 16.46512 -63 19 C-63.58203 20.90234 -63.58203 20.90234 -63.8125 22.9375 C-63.90145 23.60652 -63.99039 24.27555 -64.08203 24.96484 C-63.97997 27.49693 -63.3153 28.83903 -62 31 C-57.20459 34.44919 -51.41482 35.89124 -45.73047 37.14844 C-44.16594 37.51792 -42.60149 37.88772 -41.03711 38.25781 C-38.6164 38.81819 -36.19467 39.37338 -33.77124 39.92188 C-20.01705 43.05833 -7.28664 46.7274 1.27734 58.80078 C5.73976 66.47106 5.89468 76.08254 3.85156 84.55469 C0.27851 94.81493 -6.10495 101.00792 -15.375 106.1875 C-34.45322 115.2735 -57.74691 113.29133 -77.4375 107.1875 C-92.73311 101.5905 -92.73311 101.5905 -95.04688 96.85938 C-94.97444 92.44087 -93.03532 89.07771 -91.0625 85.1875 C-90.67643 84.39924 -90.29035 83.61098 -89.89258 82.79883 C-88.94069 80.8598 -87.97197 78.92905 -87 77 C-82.6813 77 -81.96096 77.43469 -78.5625 79.75 C-66.29468 87.44924 -50.07381 90.22843 -35.83594 87.36328 C-33.5108 86.66025 -31.2597 85.88823 -29 85 C-28.01 84.67 -27.02 84.34 -26 84 C-24.78531 80.35594 -24.07866 76.75413 -25 73 C-28.9624 67.7007 -33.50302 66.55514 -39.625 65 C-40.54853 64.74928 -41.47207 64.49855 -42.42358 64.24023 C-46.99591 63.00753 -51.58535 61.85041 -56.18359 60.71875 C-69.83922 57.33352 -82.91223 53.61965 -91.15234 41.27344 C-94.84097 33.55621 -94.29299 21.54092 -91.5625 13.625 C-86.86551 3.86971 -78.97111 -3.02734 -69 -7 C-46.79072 -13.73169 -19.8782 -13.09052 0 0 Z " fill="#00154D" transform="translate(1334.0327142665856,342.0)"/>
<path d="M0 0 C1.50056 3.37625 0.94276 5.62708 -0.29297 8.95312 C-0.91038 10.39155 -1.54237 11.82379 -2.1875 13.25 C-2.49236 13.98219 -2.79723 14.71438 -3.11133 15.46875 C-5.46224 20.79156 -5.46224 20.79156 -7.98535 21.76953 C-10.7907 22.09045 -12.132 21.14343 -14.5625 19.75 C-26.21032 13.68096 -39.36469 11.86137 -52.27344 14.72656 C-56.03014 16.08162 -58.43552 17.40326 -61.1875 20.3125 C-62.29226 23.96672 -62.00143 26.3281 -61 30 C-54.56862 37.81332 -41.89894 38.83523 -32.5 40.9375 C-4.91724 47.41313 -4.91724 47.41313 3.47266 60.25391 C7.64238 68.36917 8.26887 76.87 6.42188 85.79297 C3.16265 95.11138 -3.94396 102.72176 -12.76172 107.04688 C-33.80352 116.00708 -59.03402 115.21188 -80.20239 106.76807 C-85.03556 104.70299 -88.99197 102.41862 -93 99 C-90.66062 91.33204 -87.45231 84.22863 -84 77 C-80.85112 78.17745 -78.18367 79.44592 -75.4375 81.375 C-66.15369 87.34064 -55.57299 89.18225 -44.75 89.25 C-43.94176 89.27062 -43.13352 89.29125 -42.30078 89.3125 C-36.02745 89.35265 -29.32321 88.72384 -24.2998 84.60645 C-22.11999 81.91239 -22.11676 79.38609 -22 76 C-22.95582 73.06426 -23.95615 71.61333 -26.63794 70.0376 C-34.53668 66.4095 -42.93047 64.59225 -51.34448 62.57544 C-64.76742 59.33687 -77.85508 56.07743 -87 45 C-92.20478 36.1276 -92.37259 25.56646 -89.9375 15.75 C-86.79015 6.73248 -80.39641 0.31025 -72 -4 C-52.86991 -12.56191 -17.18184 -14.37664 0 0 Z " fill="#00164E" transform="translate(2396.0327142665856,341.0)"/>
<path d="M0 0 C1.46603 1.36679 2.92725 2.73886 4.375 4.125 C-0.72001 10.45933 -6.55031 15.7529 -12.625 21.125 C-16.02506 19.89394 -18.591 18.54621 -21.375 16.25 C-30.61279 9.10774 -40.13424 7.35034 -51.625 8.125 C-61.19456 9.7451 -68.23876 14.75273 -74.30859 22.19531 C-80.644 31.48222 -81.40359 41.18086 -80.625 52.125 C-78.42673 62.2496 -73.06517 69.95853 -64.64062 75.875 C-55.2814 81.67917 -44.75923 82.50171 -34.125 80.125 C-26.53185 77.85578 -20.04376 72.82896 -14.625 67.125 C-10.7979 68.73166 -8.15287 71.19672 -5.125 74 C-4.18656 74.86367 -3.24813 75.72734 -2.28125 76.61719 C-1.40469 77.44477 -0.52813 78.27234 0.375 79.125 C1.16906 79.8082 1.96312 80.49141 2.78125 81.19531 C4.375 83.125 4.375 83.125 4.42578 85.10156 C0.18551 93.26685 -11.2825 99.11878 -19.625 102.125 C-39.81949 107.74535 -60.68822 108.13137 -79.625 98.125 C-83.10852 95.96759 -86.4013 93.65255 -89.625 91.125 C-90.61629 90.34898 -91.60758 89.57297 -92.62891 88.77344 C-104.36428 78.3998 -109.80048 63.44524 -110.82812 48.08984 C-111.07753 31.98243 -107.00345 17.12502 -96.3125 4.75 C-85.75457 -6.09232 -73.83295 -13.60255 -58.625 -15.875 C-57.32562 -16.10188 -56.02625 -16.32875 -54.6875 -16.5625 C-34.30406 -18.44459 -15.43457 -13.75315 0 0 Z " fill="#00154E" transform="translate(1839.6577142665856,347.875)"/>
<path d="M0 0 C1.21043 -0.00129 2.42086 -0.00258 3.66797 -0.00391 C4.94285 -0.00004 6.21773 0.00383 7.53125 0.00781 C8.16869 0.00588 8.16869 0.00588 11.39453 -0.00391 C11.99975 -0.00326 11.99975 -0.00326 15.0625 0 C16.18205 0.00113 17.3016 0.00226 18.45508 0.00342 C21.03125 0.13281 21.03125 0.13281 22.03125 1.13281 C22.12652 4.08528 22.15677 7.0143 22.14478 9.96704 C22.14492 10.89378 22.14507 11.82051 22.14522 12.77533 C22.14452 15.85415 22.13672 18.93291 22.12891 22.01172 C22.12704 24.14021 22.12562 26.26871 22.12462 28.3972 C22.12079 34.01144 22.11096 39.62564 22.09991 45.23987 C22.0897 50.96395 22.08512 56.68803 22.08008 62.41211 C22.06934 73.65236 22.05226 84.89258 22.03125 96.13281 C22.76819 96.13059 23.50512 96.12837 24.26439 96.12608 C31.19538 96.10608 38.12636 96.09084 45.05737 96.081 C48.62102 96.07577 52.18465 96.06868 55.74829 96.05737 C59.84131 96.04447 63.93431 96.03958 68.02734 96.03516 C68.67004 96.03258 68.67004 96.03258 71.92247 96.01952 C73.10362 96.01944 74.28477 96.01936 75.50171 96.01929 C76.02466 96.01818 76.02466 96.01818 78.67113 96.01256 C81.03125 96.13281 81.03125 96.13281 82.03125 97.13281 C82.13025 98.68237 82.16205 100.23635 82.16406 101.78906 C82.16535 102.72879 82.16664 103.66852 82.16797 104.63672 C82.1641 105.62543 82.16023 106.61414 82.15625 107.63281 C82.16012 108.62152 82.16398 109.61023 82.16797 110.62891 C82.16668 111.56863 82.16539 112.50836 82.16406 113.47656 C82.16293 114.34475 82.16181 115.21293 82.16064 116.10742 C82.03125 118.13281 82.03125 118.13281 81.03125 119.13281 C78.32825 119.23328 75.65077 119.26898 72.94727 119.26221 C72.10017 119.26396 71.25306 119.26571 70.38029 119.26752 C67.56601 119.27194 64.75179 119.269 61.9375 119.26562 C59.99076 119.2663 58.04403 119.26727 56.09729 119.26852 C52.01163 119.27 47.92599 119.26785 43.84033 119.26318 C38.59078 119.25749 33.34129 119.26077 28.09174 119.26676 C24.07017 119.27036 20.0486 119.26922 16.02702 119.26663 C14.09084 119.26596 12.15465 119.26679 10.21846 119.26911 C7.51735 119.27163 4.81633 119.26779 2.11523 119.26221 C1.71106 119.26322 1.71106 119.26322 -0.3343 119.26834 C-5.85449 119.24707 -5.85449 119.24707 -6.96875 118.13281 C-7.0667 116.61695 -7.09507 115.09654 -7.09573 113.57751 C-7.09855 112.59313 -7.10137 111.60874 -7.10428 110.59453 C-7.10225 109.50566 -7.10023 108.41679 -7.09814 107.29492 C-7.0999 106.15521 -7.10165 105.01551 -7.10345 103.84126 C-7.10788 100.05301 -7.10493 96.26481 -7.10156 92.47656 C-7.10224 89.85722 -7.10321 87.23787 -7.10446 84.61853 C-7.10628 79.12052 -7.10388 73.62252 -7.09912 68.12451 C-7.09368 61.75964 -7.09544 55.39481 -7.10095 49.02994 C-7.10602 42.91797 -7.1055 36.80602 -7.10257 30.69405 C-7.1019 28.088 -7.10273 25.48195 -7.10505 22.8759 C-7.10757 19.24081 -7.10373 15.60579 -7.09814 11.9707 C-7.10017 10.88183 -7.10219 9.79296 -7.10428 8.6711 C-7.10146 7.68671 -7.09864 6.70233 -7.09573 5.68811 C-7.09536 4.82753 -7.09498 3.96696 -7.09459 3.0803 C-6.82119 -1.15086 -3.51724 0.00354 0 0 Z " fill="#00164E" transform="translate(1507.0014642665856,332.8671875)"/>
<path d="M0 0 C1.16531 -0.00129 2.33063 -0.00258 3.53125 -0.00391 C4.75844 -0.00004 5.98563 0.00383 7.25 0.00781 C7.86359 0.00588 7.86359 0.00588 10.96875 -0.00391 C11.55141 -0.00326 11.55141 -0.00326 14.5 0 C15.57766 0.00113 16.65531 0.00226 17.76562 0.00342 C20.25 0.13281 20.25 0.13281 21.25 1.13281 C21.34582 2.66367 21.37188 4.19895 21.37025 5.7328 C21.37163 6.72705 21.373 7.72129 21.37442 8.74567 C21.37082 9.84546 21.36723 10.94525 21.36353 12.07837 C21.36367 13.22944 21.36382 14.3805 21.36397 15.56645 C21.36327 19.39198 21.35547 23.21745 21.34766 27.04297 C21.34579 29.68713 21.34437 32.33129 21.34337 34.97545 C21.34026 41.23697 21.33204 47.49847 21.32202 53.75998 C21.31086 60.88683 21.30535 68.01368 21.30032 75.14054 C21.28986 89.80464 21.27151 104.46872 21.25 119.13281 C12.01 119.13281 2.77 119.13281 -6.75 119.13281 C-6.77255 103.7648 -6.79098 88.39679 -6.80181 73.02876 C-6.80698 65.8936 -6.81402 58.75845 -6.82544 51.62329 C-6.83645 44.74392 -6.84228 37.86455 -6.84488 30.98517 C-6.84673 28.354 -6.85035 25.72283 -6.85573 23.09166 C-6.86294 19.42055 -6.86399 15.74949 -6.86353 12.07837 C-6.86712 10.97858 -6.87072 9.87879 -6.87442 8.74567 C-6.87373 8.24854 -6.87373 8.24854 -6.87025 5.7328 C-6.87118 4.86355 -6.8721 3.9943 -6.87305 3.09871 C-6.61108 -1.08668 -3.50623 0.00367 0 0 Z " fill="#00164E" transform="translate(1868.7827142665856,332.8671875)"/>
</svg>
